<?xml version="1.0" encoding="utf-8"?>
<!DOCTYPE svg PUBLIC "-//W3C//DTD SVG 20010904//EN" "http://www.w3.org/TR/2001/REC-SVG-20010904/DTD/svg10.dtd">
<svg version="1.0" xmlns="http://www.w3.org/2000/svg" width="200px" height="200px" viewBox="0 0 200 200" preserveAspectRatio="xMidYMid meet">
 <g fill="#000001">
  <path d="M71.2 183.6 c-3.4 -1.8 -9.9 -11 -14.8 -21.1 -2.4 -5 -4.4 -9.5 -4.4 -10.1 0 -0.5 -1.4 -1.5 -3.2 -2.2 -2.8 -1 -3.4 -0.9 -5 0.8 -2.7 2.8 -5.5 2.5 -13.7 -1.6 -18.3 -9.1 -26.4 -25.8 -21.7 -44.4 1.9 -7.3 5.9 -13.9 14.1 -23.1 6.4 -7.2 8.2 -10.3 13.1 -23.1 4.3 -11.4 8.7 -18 17.4 -26.2 12.1 -11.3 27.8 -17.1 47 -17.1 19.2 0 34.9 5.8 47 17.1 8.6 8.1 13.1 14.9 17.2 25.6 1.7 4.6 3.3 8.5 3.5 8.8 0.2 0.2 1.9 -1.2 3.8 -3.3 3.9 -4.3 4.8 -4.4 7.5 -1.7 2.4 2.4 2.5 5.3 0.5 13.7 l-1.5 6.2 5.5 7.3 c7.2 9.5 9 14.9 9 26.3 0 7.7 -0.4 9.8 -2.7 14.8 -3.5 7.5 -11 14.7 -19.9 19.1 -8.2 4.1 -11 4.4 -13.7 1.6 -1.6 -1.7 -2.2 -1.8 -5 -0.8 -1.8 0.7 -3.2 1.7 -3.2 2.2 0 2.2 -9.1 19.5 -12.9 24.6 -5.4 7.1 -8.1 8.6 -11.2 6.1 l-2.3 -1.9 2.6 -10.3 c1.5 -5.7 2.6 -10.4 2.4 -10.6 -0.1 -0.2 -4 2 -8.6 4.7 -11.5 6.9 -16.5 8.3 -22.8 6.5 -2.7 -0.8 -8.6 -3.7 -13.2 -6.5 -4.6 -2.7 -8.5 -4.9 -8.6 -4.7 -0.2 0.2 0.8 4.7 2.2 10 1.4 5.4 2.4 10.4 2.1 11.2 -1 2.4 -4 3.4 -6.5 2.1z"/>
 </g>
 <g fill="#b23747">
  <path d="M70 176.8 c-4.4 -5.6 -10.6 -16.7 -13.4 -23.9 -1.5 -3.9 -2.5 -5 -6.8 -7 -4.9 -2.3 -11.8 -8.8 -11.8 -11.2 0 -2.1 -2 1.6 -2 3.8 0 1.2 0.9 3.8 2 6 2.4 4.7 2.4 4.6 0.3 3.9 -5.3 -1.7 -13.2 -6.5 -17.3 -10.5 -7.5 -7.2 -9 -11 -9 -23 0 -9.4 0.2 -10.5 3.1 -15.9 1.7 -3.1 4.8 -7.7 7 -10.1 8.7 -9.6 12.2 -15.1 16 -25.1 2.1 -5.6 5.3 -12.6 7.1 -15.5 7.1 -11.8 19.6 -21.6 31.8 -25.2 2.5 -0.7 5.8 -1.7 7.4 -2.2 3.8 -1.2 27.4 -1.2 31.2 0 1.6 0.5 4.9 1.5 7.4 2.2 12.3 3.6 24.7 13.4 31.8 25.3 1.9 3 4.7 9.2 6.4 13.8 4.6 12.6 5.1 12.9 11 6.8 l3.8 -4.1 0 4.8 c0 2.6 -0.7 6.8 -1.6 9.2 -1.5 4.4 -1.5 4.4 1.3 7.5 1.5 1.7 3.1 3.3 3.4 3.6 1.7 1.5 6.7 10 7.7 12.9 0.7 1.9 1.2 7.6 1.2 12.8 0 11.1 -1.6 15.1 -9 22.2 -4.1 4 -12 8.8 -17.2 10.5 -2.2 0.7 -2.2 0.8 0.2 -3.9 3.7 -7.2 2 -12.7 -1.9 -6.4 -1.7 2.7 -4.4 4.9 -8.8 7.1 -5.4 2.9 -6.4 3.9 -7.9 7.8 -1.8 4.7 -6.2 13 -10 19 -4.9 7.9 -8.9 10.4 -6.7 4.3 1.4 -3.7 2.9 -9.5 4.4 -16.3 0.6 -3 1.5 -6.8 2 -8.3 1 -3.2 1.4 -3.4 -9 4.1 -9.6 6.9 -20.1 12.2 -24.2 12.2 -4 0 -16.5 -6.5 -25.7 -13.5 -4 -3 -7.5 -5.5 -7.7 -5.5 -0.2 0 0 1.2 0.4 2.8 0.5 1.5 1.4 5.2 2 8.2 1.5 7 3.1 12.8 4.2 15.8 2 5.1 0.6 5.5 -3.1 1z"/>
 </g>
 <g fill="#e74056">
  <path d="M68.3 173.3 c-6.6 -9.4 -13.1 -23.7 -17.4 -38.1 -1.9 -6.4 -4.8 -11.2 -6.9 -11.2 -1.1 0 -6 -9.7 -6 -11.9 0 -4.4 -2.2 -2.1 -7.2 7.9 -4.5 9.1 -3.7 16.9 2.6 23.9 l3.1 3.4 -5.3 -2.8 c-7.5 -4.1 -12.3 -8.5 -15.7 -14.6 -2.7 -4.9 -3 -6.2 -3 -14.9 0 -8.5 0.3 -10.1 2.9 -15.2 1.6 -3.2 5.8 -9 9.3 -12.9 8 -8.9 10.4 -12.7 13.7 -21.9 5.6 -15.4 10.9 -23.5 20.5 -31.3 11.4 -9.2 23.7 -13.1 41.1 -13.1 30.7 -0.1 50.7 14.1 61 42.9 2.8 7.9 4.2 10.5 5.7 10.5 0.7 0 3.2 -1.7 5.4 -3.7 l4.2 -3.8 -0.8 4.5 c-0.4 2.5 -1.3 6.3 -2 8.4 l-1.4 3.9 5 5.6 c2.8 3.1 6.2 8.1 7.7 11.1 2.4 4.8 2.7 6.7 2.7 15 0 8.6 -0.3 10 -2.9 14.8 -3.6 6.4 -8.7 11.2 -15.8 14.8 l-5.3 2.6 3.1 -3.3 c4.5 -4.8 5.4 -7.1 5.4 -13.1 -0.1 -3.8 -0.9 -6.9 -2.8 -10.8 -5 -10 -7.2 -12.3 -7.2 -7.9 0 2.2 -4.9 11.9 -6 11.9 -2.1 0 -5 4.8 -6.9 11.2 -2.5 8.1 -7.1 19.7 -10.9 27.3 -2.4 4.9 -10.3 16.8 -10.7 16.3 -0.2 -0.2 1 -5.2 2.5 -11.3 1.5 -6 3.1 -13 3.5 -15.4 l0.7 -4.4 -4.8 4 c-9.7 8.1 -24.5 16.3 -29.4 16.3 -4.9 0 -23.5 -10.6 -31.2 -17.8 -2.6 -2.3 -2.8 -2.4 -2.8 -0.6 0 1 1.5 8 3.4 15.4 1.8 7.4 3.2 13.6 3.1 13.8 -0.1 0.1 -2 -2.4 -4.2 -5.5z"/>
 </g>
 <g fill="#fdf0de">
  <path d="M92.2 165.5 c-6.3 -2.9 -21.1 -12.7 -24.1 -15.9 -1.1 -1.2 -2.5 -4.4 -3 -7.2 -1.4 -7.4 -3.3 -32.2 -2.9 -37.9 l0.3 -5 5.5 -0.3 c7.6 -0.4 13.2 1.2 18.8 5.5 4.8 3.7 8.7 5.6 13.7 6.9 2.7 0.7 2.4 0.2 -3 -5.1 -4.3 -4.1 -4.9 -5 -2.2 -3.1 7 5.1 14.6 7.9 22.1 8.3 l7.1 0.3 -5.2 -2.1 c-8.7 -3.6 -14.1 -9.1 -17.4 -17.5 -0.9 -2.6 -0.9 -2.6 3.3 0.8 2.4 1.9 5.3 4 6.6 4.7 2.1 1.1 2.2 1.4 0.8 2.4 -1.4 1 -0.8 1.2 3.1 1.4 2.6 0 8.8 0.4 13.7 0.8 l8.9 0.8 -0.7 11.6 c-0.9 15.9 -2.5 29.1 -3.9 32.1 -2.6 5.5 -27.4 21 -33.5 21 -1.5 0 -5.1 -1.1 -8 -2.5z"/>
  <path d="M45.1 124.3 c-2.9 -2 -7.1 -10.8 -7.1 -15 0 -3.3 1.8 -8.3 3 -8.3 0.6 0 7 24.1 6.6 24.7 -0.1 0.2 -1.3 -0.5 -2.5 -1.4z"/>
  <path d="M152.4 124.5 c0.4 -1.1 1.9 -6.8 3.3 -12.7 1.4 -6 2.8 -10.8 3.2 -10.8 1.3 0 3.1 4.9 3.1 8.4 0 4.2 -4.8 13.5 -8 15.5 -2.3 1.5 -2.4 1.5 -1.6 -0.4z"/>
  <path d="M71.3 98.3 l-7.2 -0.4 3.5 -7.2 c1.9 -3.9 3.4 -7.8 3.4 -8.7 0 -0.8 1.1 1.1 2.4 4.3 1.3 3.1 3.6 7.3 5 9.2 1.5 2 2.1 3.4 1.4 3.3 -0.7 -0.1 -4.5 -0.4 -8.5 -0.5z"/>
  <path d="M88.9 81.1 c0.7 -1.1 2.6 -4.2 4.3 -6.8 l3.2 -4.6 -5.5 -4.9 c-3 -2.6 -6.1 -4.8 -7 -4.8 -1.8 0 -13.3 3.7 -16.4 5.2 -1.1 0.6 -4.6 3 -7.7 5.5 -3.2 2.4 -5.8 4 -5.8 3.5 0 -1.9 6.4 -10.4 10.5 -14 2.4 -2.1 7.1 -5.3 10.5 -7.1 5.1 -2.7 5.9 -3.6 5.5 -5.4 -3.4 -14.7 -4.3 -19.2 -4.1 -19.5 0.2 -0.1 2.7 3.4 5.6 7.8 5.2 7.9 6.3 8.9 7.5 7 0.3 -0.6 5 -1 10.5 -1 5.5 0 10.2 0.4 10.5 1 1.2 1.9 2.3 0.9 7.5 -7 2.9 -4.4 5.4 -7.9 5.6 -7.8 0.2 0.3 -0.7 4.8 -4.1 19.5 -0.4 1.8 0.4 2.7 5.5 5.4 3.4 1.8 8.1 5 10.5 7.1 4.1 3.6 10.5 12.1 10.5 14 0 0.5 -2.6 -1.1 -5.7 -3.5 -3.2 -2.5 -6.7 -4.9 -7.8 -5.5 -3.1 -1.5 -14.6 -5.2 -16.4 -5.2 -0.9 0 -4 2.2 -7 4.8 l-5.4 4.8 4.2 6.3 c2.4 3.4 4.1 6.5 3.8 6.7 -0.2 0.3 -2.7 -1.6 -5.5 -4.1 -2.7 -2.5 -5.6 -4.5 -6.4 -4.5 -0.8 0 -2.5 1.2 -3.9 2.6 -1.3 1.4 -3.7 3.5 -5.3 4.6 l-2.8 2.1 1.1 -2.2z"/>
 </g>
 <g fill="#d4ca72">
  <path d="M89 81.2 c0 -0.5 0.9 -1.9 2 -3.2 1.1 -1.2 2.2 -3.1 2.5 -4.1 0.4 -1.1 1.1 -1.9 1.6 -1.9 0.5 0 0.9 -0.8 0.8 -1.7 0 -2.1 -10 -10.3 -12.5 -10.3 -1.9 0 -7.9 1.8 -10.6 3.1 -1 0.5 -2.3 0.9 -2.9 0.9 -1.2 0 -10.2 6 -10.7 7.2 -0.2 0.4 -1 0.8 -1.8 0.8 -0.8 0 -1.4 0.5 -1.4 1 0 0.6 -0.4 1 -0.9 1 -1.9 0 2.2 -6.1 7.7 -11.7 3.2 -3.2 8.4 -7.2 11.7 -8.9 5 -2.5 6 -3.4 5.8 -5.5 -0.3 -3.3 -2.2 -12.8 -3.3 -16.1 -0.4 -1.6 -0.5 -2.8 -0.2 -2.8 0.9 0 9.2 12.7 9.2 14 0 1.3 2.7 1.3 3.5 0 0.8 -1.3 20.2 -1.3 21 0 0.8 1.3 3.5 1.3 3.5 0 0 -1.3 8.3 -14 9.2 -14 0.3 0 0.2 1.2 -0.2 2.8 -1.1 3.3 -3 12.8 -3.3 16.1 -0.2 2.1 0.8 3 5.8 5.5 6.5 3.3 16.3 12.5 18.8 17.5 0.8 1.7 1.1 3.1 0.6 3.1 -0.5 0 -0.9 -0.4 -0.9 -1 0 -0.5 -0.4 -1 -1 -1 -0.5 0 -3.3 -1.8 -6.2 -4 -2.9 -2.2 -6.1 -4 -7 -4 -0.9 0 -2 -0.4 -2.3 -1 -0.3 -0.5 -1.7 -1 -3 -1 -1.3 0 -2.7 -0.4 -3 -1 -1.3 -2.1 -6.6 -1 -10.8 2.3 -7.7 6 -8 6.4 -4.7 9.9 1.1 1.2 2 2.8 2 3.5 0 0.7 0.3 1.3 0.8 1.3 0.4 0 1.3 0.9 2 2 1.9 3.2 -0.1 2.3 -5.1 -2 -5.1 -4.6 -6.6 -4.9 -9.3 -1.9 -2.6 2.9 -7.4 6.2 -7.4 5.1z"/>
 </g>
 <g fill="#50edbe">
  <path d="M94.8 56.3 c-9.2 -13.9 -9 -14.3 5.2 -14.3 11 0 13.1 1 10.9 5.2 -2.4 4.5 -10.2 15.8 -10.9 15.8 -0.4 0 -2.7 -3 -5.2 -6.7z"/>
 </g>
</svg>