<!DOCTYPE svg PUBLIC "-//W3C//DTD SVG 20010904//EN" "http://www.w3.org/TR/2001/REC-SVG-20010904/DTD/svg10.dtd">
<svg version="1.0" xmlns="http://www.w3.org/2000/svg" width="200px" height="200px" viewBox="0 0 2000 2000" preserveAspectRatio="xMidYMid meet">
<g id="layer101" fill="#000000" stroke="none">
<path d="M828 1827 c-89 -24 -174 -71 -207 -113 -24 -30 -33 -30 -223 2 -86 15 -164 24 -172 21 -35 -14 -16 -50 64 -124 60 -56 88 -91 115 -145 41 -82 45 -138 20 -253 -62 -281 -60 -458 9 -593 14 -28 26 -58 26 -66 0 -33 65 -137 113 -182 89 -83 124 -95 169 -56 15 13 25 13 85 -2 37 -10 98 -20 134 -23 l66 -6 24 -76 c25 -83 43 -111 70 -111 22 0 228 104 255 128 10 10 34 28 52 40 17 13 52 48 76 77 43 53 44 55 51 152 5 71 12 107 27 131 11 17 16 32 13 32 -4 0 -1 10 7 22 51 78 50 291 -3 478 -60 217 -39 309 107 454 58 57 75 80 72 98 -3 20 -8 23 -48 23 -25 -1 -88 -9 -140 -19 -174 -33 -175 -33 -217 5 -90 82 -195 119 -353 125 -88 4 -119 1 -192 -19z"/>
</g>
<g id="layer102" fill="#555353" stroke="none">
<path d="M838 1790 c-82 -22 -149 -59 -185 -105 -23 -28 -35 -35 -63 -35 -40 1 -295 44 -324 56 -10 4 20 -31 66 -77 140 -139 170 -235 133 -418 -10 -47 -22 -94 -27 -103 -5 -10 -11 -80 -15 -155 -6 -152 5 -222 52 -319 14 -28 25 -59 25 -68 0 -46 84 -164 147 -205 l47 -31 27 26 26 25 59 -17 c33 -9 101 -22 153 -28 l94 -11 30 -90 c17 -50 32 -92 34 -94 5 -7 157 70 222 114 37 24 90 68 118 98 l51 54 7 98 c7 84 13 110 44 174 34 72 36 82 39 196 4 106 1 133 -23 225 -49 185 -55 223 -49 275 11 93 66 188 162 281 30 30 53 54 51 54 -2 0 -20 -5 -39 -11 -47 -14 -247 -48 -287 -49 -24 0 -37 7 -48 24 -72 110 -334 168 -527 116z"/>
</g>
<g id="layer103" fill="#999999" stroke="none">
<path d="M862 1794 c-82 -22 -161 -63 -202 -105 -29 -30 -45 -39 -71 -39 -39 1 -295 44 -323 56 -10 4 20 -31 66 -77 144 -143 174 -244 128 -434 -27 -114 -29 -126 -36 -265 -7 -127 6 -202 51 -296 14 -28 25 -59 25 -68 0 -46 84 -164 147 -205 l47 -31 27 26 26 25 59 -17 c33 -9 101 -22 153 -28 l94 -11 30 -90 c17 -50 32 -92 34 -94 5 -7 157 70 222 114 37 24 90 68 118 98 l51 54 7 98 c7 84 13 110 44 174 34 72 36 82 39 197 4 114 2 129 -33 260 -59 216 -52 293 36 420 17 26 57 71 87 100 30 30 53 54 51 54 -2 0 -20 -5 -39 -11 -46 -14 -246 -48 -285 -49 -22 0 -40 11 -69 40 -95 98 -324 148 -484 104z m6 -31 c0 -5 1 -15 5 -23 3 -8 10 -43 17 -78 11 -63 11 -63 -17 -85 -39 -30 -154 -145 -186 -187 -26 -34 -27 -34 -27 -10 0 14 4 42 9 63 11 45 -1 48 -26 7 -24 -42 -38 -37 -40 13 -2 52 15 147 27 147 4 0 11 11 14 25 4 14 18 33 33 42 15 10 38 28 51 40 35 32 145 68 140 46z m360 -18 c114 -53 181 -150 173 -250 -1 -15 -7 -10 -23 19 -23 45 -147 176 -166 176 -8 0 -2 -15 13 -40 23 -36 61 -139 79 -214 6 -26 -1 -21 -63 41 -38 39 -85 83 -104 97 l-34 26 14 63 c7 34 16 72 18 85 7 28 27 28 93 -3z"/>
</g>
<g id="layer104" fill="#bebebe" stroke="none">
<path d="M898 1803 c-33 -4 -37 -7 -36 -29 1 -13 5 -24 9 -24 3 0 12 -34 19 -76 l13 -75 -54 -47 c-50 -43 -92 -86 -167 -172 l-30 -35 10 53 c15 85 7 93 -32 32 -27 -42 -36 -50 -38 -35 -12 72 -123 200 -214 246 -21 11 -38 26 -38 34 0 8 -9 16 -20 16 -33 2 -38 4 -46 12 -4 4 -11 7 -17 7 -10 0 74 -79 85 -80 14 0 101 -132 119 -180 25 -65 24 -152 -2 -260 -24 -97 -26 -114 -35 -265 -7 -123 6 -198 51 -291 14 -28 25 -59 25 -68 0 -46 84 -164 147 -205 l47 -31 27 26 26 25 59 -17 c33 -9 101 -22 153 -28 l94 -11 30 -90 c17 -50 32 -92 34 -94 5 -7 157 70 222 114 37 24 90 68 118 98 l51 54 7 98 c7 84 13 110 44 174 36 76 36 76 36 211 0 74 -4 147 -8 161 -82 300 -82 355 5 494 18 27 53 72 80 99 26 26 48 49 48 50 0 10 -30 0 -34 -10 -3 -8 -12 -11 -21 -8 -8 3 -15 1 -15 -5 0 -6 -7 -8 -15 -5 -11 4 -13 2 -10 -9 4 -8 0 -17 -7 -20 -33 -12 -141 -113 -164 -153 -14 -24 -27 -44 -29 -44 -2 0 -23 33 -48 73 -43 68 -152 185 -163 174 -3 -2 8 -31 25 -63 24 -48 71 -191 71 -216 0 -4 -37 31 -82 76 -46 46 -93 90 -106 98 l-22 15 16 79 c8 44 20 87 25 96 5 11 5 19 -2 24 -13 8 -192 13 -241 7z m145 -958 c23 -22 152 -97 160 -94 1 1 21 -4 45 -11 42 -13 42 -14 36 -49 -19 -107 -114 -341 -139 -345 -24 -3 -135 392 -135 480 0 19 -4 34 -9 34 -5 0 -62 -67 -127 -150 -66 -82 -122 -150 -126 -150 -4 0 -20 42 -36 93 -31 101 -32 99 34 110 44 8 128 41 208 83 54 28 56 28 89 -1z"/>
</g>
<g id="layer105" fill="#f3c9ab" stroke="none">
<path d="M898 1803 c-33 -4 -37 -7 -36 -28 1 -13 5 -22 8 -20 3 2 13 -35 21 -81 l15 -85 -31 -19 c-31 -19 -141 -127 -192 -189 l-28 -35 -3 -199 -3 -199 28 7 c15 3 70 22 121 42 52 19 96 32 99 29 11 -10 -85 -48 -194 -76 -38 -10 -43 -14 -43 -40 0 -26 15 -116 25 -146 7 -23 203 40 285 91 l35 22 34 -28 c42 -35 165 -97 213 -108 36 -9 38 -8 43 23 18 106 25 169 20 174 -3 3 -53 22 -112 41 -59 20 -108 41 -110 48 -2 6 42 -6 99 -28 57 -21 108 -39 115 -39 16 0 27 152 20 260 -13 180 -11 174 -101 265 -45 45 -92 89 -105 98 l-23 16 15 68 c33 141 35 129 -25 136 -54 7 -124 7 -190 0z"/>
</g>
<g id="layer106" fill="#fef4e8" stroke="none">
<path d="M985 1643 c-49 -12 -212 -154 -302 -262 l-28 -35 -3 -199 -3 -199 28 7 c15 3 70 22 121 42 52 19 96 32 99 29 11 -10 -85 -48 -194 -76 -38 -10 -43 -14 -43 -40 0 -26 15 -116 25 -146 7 -23 203 40 285 91 l35 22 34 -28 c42 -35 165 -97 213 -108 36 -9 38 -8 43 23 18 106 25 169 20 174 -3 3 -53 22 -112 41 -59 20 -108 41 -110 48 -2 6 42 -6 99 -28 57 -21 108 -39 115 -39 16 0 27 152 20 260 -13 174 -13 173 -89 255 -60 65 -207 177 -226 174 -4 -1 -16 -4 -27 -6z"/>
<path d="M511 1151 c-33 -46 -61 -113 -61 -148 0 -34 42 -94 56 -80 8 7 35 249 29 255 -1 2 -12 -10 -24 -27z"/>
<path d="M1504 1113 c3 -27 8 -81 12 -121 6 -70 7 -72 24 -57 29 26 44 73 33 98 -47 104 -59 127 -66 127 -5 0 -6 -21 -3 -47z"/>
</g>


</svg>