<?xml version="1.0" encoding="UTF-8"?>
<!DOCTYPE svg PUBLIC "-//W3C//DTD SVG 1.1//EN" "http://www.w3.org/Graphics/SVG/1.1/DTD/svg11.dtd">
<svg xmlns="http://www.w3.org/2000/svg" version="1.1" width="200px" height="200px" style="shape-rendering:geometricPrecision; text-rendering:geometricPrecision; image-rendering:optimizeQuality; fill-rule:evenodd; clip-rule:evenodd" xmlns:xlink="http://www.w3.org/1999/xlink">
<g><path style="opacity:0.889" fill="#050203" d="M 47.5,2.5 C 60.9036,7.45209 73.4036,14.1188 85,22.5C 86.0454,19.5639 86.8788,16.5639 87.5,13.5C 88.914,12.376 90.414,11.376 92,10.5C 103.946,19.0343 114.112,29.3677 122.5,41.5C 132.457,41.0299 142.457,41.5299 152.5,43C 159.286,44.5954 165.953,46.5954 172.5,49C 177.216,51.9989 177.549,55.3322 173.5,59C 169.334,61.9175 165.001,64.5841 160.5,67C 171.428,76.7165 182.261,86.5499 193,96.5C 195,99.5 195,102.5 193,105.5C 184.437,112.534 175.271,118.7 165.5,124C 170.67,134.344 167.836,138.51 157,136.5C 156.029,142.022 155.195,147.522 154.5,153C 158.036,156.201 161.203,159.701 164,163.5C 166.962,173.081 163.795,179.914 154.5,184C 140.915,190.105 126.748,194.272 112,196.5C 105.016,196.736 102.682,193.736 105,187.5C 106.351,185.981 107.851,184.648 109.5,183.5C 109.167,183.167 108.833,182.833 108.5,182.5C 103.652,185.123 98.8185,185.123 94,182.5C 93.5,182.667 93,182.833 92.5,183C 95.284,185.112 97.284,187.779 98.5,191C 97.5634,194.891 95.0634,196.724 91,196.5C 74.6653,194.277 59.1653,189.444 44.5,182C 37.1321,176.913 35.2987,170.413 39,162.5C 41.2954,159.203 43.962,156.203 47,153.5C 47.7063,151.029 47.373,148.695 46,146.5C 42.0369,151.907 38.0369,152.241 34,147.5C 34.1693,140.151 34.5026,132.818 35,125.5C 25.907,120.732 17.0737,115.566 8.5,110C 4.26847,106.686 3.6018,102.853 6.5,98.5C 14.6861,91.9036 22.6861,85.0703 30.5,78C 25.0527,73.8539 19.8861,69.3539 15,64.5C 14.5983,63.1279 14.0983,61.7946 13.5,60.5C 14.0983,59.2054 14.5983,57.8721 15,56.5C 17.9831,55.0835 21.1498,54.2501 24.5,54C 32.1667,53.6667 39.8333,53.3333 47.5,53C 44.881,38.6491 43.2143,24.1491 42.5,9.5C 42.5732,5.8171 44.2398,3.48376 47.5,2.5 Z"/></g>
<g><path style="opacity:1" fill="#854935" d="M 154.5,129.5 C 153.525,127.487 151.858,126.154 149.5,125.5C 147.614,130.527 145.947,135.694 144.5,141C 144.667,141.5 144.833,142 145,142.5C 146.704,140.627 148.537,138.96 150.5,137.5C 150.827,142.214 150.493,146.88 149.5,151.5C 147.424,149.712 145.257,148.046 143,146.5C 142.487,147.527 141.987,148.527 141.5,149.5C 139.896,150.287 139.229,151.62 139.5,153.5C 137.824,154.183 137.157,155.517 137.5,157.5C 136.265,157.721 135.265,158.388 134.5,159.5C 133.702,159.043 133.369,158.376 133.5,157.5C 136.697,144.322 137.697,130.988 136.5,117.5C 135.554,117.013 134.554,116.68 133.5,116.5C 125.898,118.205 118.565,120.372 111.5,123C 112.167,121.667 113.167,120.667 114.5,120C 120.785,118.077 127.119,116.411 133.5,115C 128.533,111.034 123.866,106.701 119.5,102C 118.668,101.312 118.002,101.479 117.5,102.5C 114.238,110.031 109.738,116.697 104,122.5C 100.81,116.931 98.8104,110.931 98,104.5C 95.9039,109.027 93.0706,113.027 89.5,116.5C 87.1549,111.787 85.6549,106.787 85,101.5C 81.2977,105.37 77.4643,109.037 73.5,112.5C 72.0695,112.579 70.7362,112.246 69.5,111.5C 70.038,113.723 69.3714,115.723 67.5,117.5C 66.8826,117.611 66.3826,117.944 66,118.5C 64.9907,131.3 65.824,143.967 68.5,156.5C 67.1667,156.833 65.8333,157.167 64.5,157.5C 64.1667,157.5 63.8333,157.5 63.5,157.5C 63.856,154.224 62.856,151.557 60.5,149.5C 60.5299,148.503 60.0299,147.836 59,147.5C 57.0104,148.818 55.0104,150.152 53,151.5C 51.9502,146.552 51.4502,141.552 51.5,136.5C 53.6503,138.76 55.8169,141.093 58,143.5C 56.903,138.526 55.5696,133.526 54,128.5C 52.5576,130.391 51.3909,132.391 50.5,134.5C 46.5586,136.772 43.2253,139.772 40.5,143.5C 40.1667,141.667 39.8333,139.833 39.5,138C 40.1753,132.802 40.6753,127.635 41,122.5C 29.9188,117.047 19.4188,110.713 9.5,103.5C 19.0343,94.4668 29.0343,85.9668 39.5,78C 31.8564,73.3353 25.1897,67.502 19.5,60.5C 30.7475,58.708 42.0809,58.0414 53.5,58.5C 50.7325,41.96 49.0658,25.2933 48.5,8.5C 63.6902,14.7646 77.6902,23.098 90.5,33.5C 91.3299,27.8624 91.8299,22.1958 92,16.5C 102.769,25.099 111.935,35.099 119.5,46.5C 130.169,46.0998 140.835,46.5998 151.5,48C 157.834,49.3378 163.834,51.5044 169.5,54.5C 163.772,58.8923 157.772,62.8923 151.5,66.5C 164.126,77.8237 176.792,89.1571 189.5,100.5C 180.741,108.388 171.074,115.055 160.5,120.5C 160.167,121 159.833,121.5 159.5,122C 161.543,124.988 162.209,128.154 161.5,131.5C 159.382,130.054 157.049,129.387 154.5,129.5 Z"/></g>
<g><path style="opacity:1" fill="#fbe4d2" d="M 133.5,157.5 C 129.474,161.195 125.474,164.862 121.5,168.5C 115.335,172.98 108.668,176.646 101.5,179.5C 94.6931,177.017 88.3597,173.683 82.5,169.5C 82.5,168.833 82.1667,168.5 81.5,168.5C 77.8592,165.195 74.1925,161.862 70.5,158.5C 70.1667,157.5 69.5,156.833 68.5,156.5C 65.824,143.967 64.9907,131.3 66,118.5C 66.3826,117.944 66.8826,117.611 67.5,117.5C 75.0302,117.998 82.3636,119.998 89.5,123.5C 90.5709,121.675 89.9042,120.508 87.5,120C 81.8178,118.328 76.1511,116.661 70.5,115C 71.9423,114.623 72.9423,113.79 73.5,112.5C 77.4643,109.037 81.2977,105.37 85,101.5C 85.6549,106.787 87.1549,111.787 89.5,116.5C 93.0706,113.027 95.9039,109.027 98,104.5C 98.8104,110.931 100.81,116.931 104,122.5C 109.738,116.697 114.238,110.031 117.5,102.5C 118.002,101.479 118.668,101.312 119.5,102C 123.866,106.701 128.533,111.034 133.5,115C 127.119,116.411 120.785,118.077 114.5,120C 113.167,120.667 112.167,121.667 111.5,123C 118.565,120.372 125.898,118.205 133.5,116.5C 134.554,116.68 135.554,117.013 136.5,117.5C 137.697,130.988 136.697,144.322 133.5,157.5 Z"/></g>
<g><path style="opacity:1" fill="#8d5e4c" d="M 73.5,112.5 C 72.9423,113.79 71.9423,114.623 70.5,115C 76.1511,116.661 81.8178,118.328 87.5,120C 89.9042,120.508 90.5709,121.675 89.5,123.5C 82.3636,119.998 75.0302,117.998 67.5,117.5C 69.3714,115.723 70.038,113.723 69.5,111.5C 70.7362,112.246 72.0695,112.579 73.5,112.5 Z"/></g>
<g><path style="opacity:1" fill="#f2d8c3" d="M 154.5,129.5 C 153.153,132.193 151.82,134.86 150.5,137.5C 148.537,138.96 146.704,140.627 145,142.5C 144.833,142 144.667,141.5 144.5,141C 145.947,135.694 147.614,130.527 149.5,125.5C 151.858,126.154 153.525,127.487 154.5,129.5 Z"/></g>
<g><path style="opacity:1" fill="#f3dac5" d="M 51.5,136.5 C 51.1667,135.833 50.8333,135.167 50.5,134.5C 51.3909,132.391 52.5576,130.391 54,128.5C 55.5696,133.526 56.903,138.526 58,143.5C 55.8169,141.093 53.6503,138.76 51.5,136.5 Z"/></g>
<g><path style="opacity:1" fill="#825eae" d="M 139.5,153.5 C 139.5,154.833 139.5,156.167 139.5,157.5C 138.833,157.5 138.167,157.5 137.5,157.5C 137.157,155.517 137.824,154.183 139.5,153.5 Z"/></g>
<g><path style="opacity:1" fill="#a2452f" d="M 64.5,157.5 C 65.8333,157.167 67.1667,156.833 68.5,156.5C 69.5,156.833 70.1667,157.5 70.5,158.5C 69.8423,159.398 69.1757,160.398 68.5,161.5C 67.4787,159.812 66.1454,158.479 64.5,157.5 Z"/></g>
<g><path style="opacity:1" fill="#366ef0" d="M 60.5,149.5 C 62.856,151.557 63.856,154.224 63.5,157.5C 62.1713,161.481 62.1713,165.481 63.5,169.5C 66.4799,174.146 70.1466,178.146 74.5,181.5C 74.7086,182.922 75.2086,184.255 76,185.5C 76.6667,184.167 77.3333,184.167 78,185.5C 78.6877,186.332 78.521,186.998 77.5,187.5C 68.7796,184.795 60.1129,182.128 51.5,179.5C 48.8508,177.86 46.1841,176.193 43.5,174.5C 42.7814,172.236 42.448,169.903 42.5,167.5C 47.5,160.5 53.5,154.5 60.5,149.5 Z"/></g>
<g><path style="opacity:1" fill="#df412d" d="M 63.5,157.5 C 63.8333,157.5 64.1667,157.5 64.5,157.5C 66.1454,158.479 67.4787,159.812 68.5,161.5C 69.1757,160.398 69.8423,159.398 70.5,158.5C 74.1925,161.862 77.8592,165.195 81.5,168.5C 79.9337,173.552 80.6004,178.385 83.5,183C 82.2625,183.232 81.2625,183.732 80.5,184.5C 78.2895,183.877 76.2895,182.877 74.5,181.5C 70.1466,178.146 66.4799,174.146 63.5,169.5C 62.1713,165.481 62.1713,161.481 63.5,157.5 Z"/></g>
<g><path style="opacity:1" fill="#346ef1" d="M 141.5,149.5 C 147.789,154.286 153.622,159.62 159,165.5C 161,168.167 161,170.833 159,173.5C 155.593,176.786 151.76,179.453 147.5,181.5C 138.069,185.05 128.402,187.717 118.5,189.5C 116.302,189.591 115.969,188.925 117.5,187.5C 117.833,187.5 118.167,187.5 118.5,187.5C 120.848,187.408 122.514,186.408 123.5,184.5C 128.755,181.249 133.422,177.249 137.5,172.5C 138.15,172.196 138.817,171.863 139.5,171.5C 140.809,167.351 140.809,163.351 139.5,159.5C 139.5,158.833 139.5,158.167 139.5,157.5C 139.5,156.167 139.5,154.833 139.5,153.5C 139.229,151.62 139.896,150.287 141.5,149.5 Z"/></g>
<g><path style="opacity:1" fill="#db402a" d="M 133.5,157.5 C 133.369,158.376 133.702,159.043 134.5,159.5C 135.265,158.388 136.265,157.721 137.5,157.5C 138.167,157.5 138.833,157.5 139.5,157.5C 139.5,158.167 139.5,158.833 139.5,159.5C 139.945,164.101 139.278,168.435 137.5,172.5C 133.422,177.249 128.755,181.249 123.5,184.5C 121.326,184.75 119.659,185.75 118.5,187.5C 118.167,187.5 117.833,187.5 117.5,187.5C 115.5,188.167 113.5,188.833 111.5,189.5C 116.734,183.497 120.067,176.497 121.5,168.5C 125.474,164.862 129.474,161.195 133.5,157.5 Z"/></g>
<g><path style="opacity:1" fill="#815eb4" d="M 139.5,159.5 C 140.809,163.351 140.809,167.351 139.5,171.5C 138.817,171.863 138.15,172.196 137.5,172.5C 139.278,168.435 139.945,164.101 139.5,159.5 Z"/></g>
<g><path style="opacity:1" fill="#080933" d="M 42.5,167.5 C 42.448,169.903 42.7814,172.236 43.5,174.5C 42.0069,173.688 41.3402,172.355 41.5,170.5C 41.5195,169.274 41.8529,168.274 42.5,167.5 Z"/></g>
<g><path style="opacity:1" fill="#475dc5" d="M 51.5,179.5 C 60.1129,182.128 68.7796,184.795 77.5,187.5C 78.521,186.998 78.6877,186.332 78,185.5C 77.3333,184.167 76.6667,184.167 76,185.5C 75.2086,184.255 74.7086,182.922 74.5,181.5C 76.2895,182.877 78.2895,183.877 80.5,184.5C 83.1443,186.723 86.1443,188.389 89.5,189.5C 89.38,190.586 88.7133,191.253 87.5,191.5C 81.1795,189.956 74.8462,188.456 68.5,187C 62.597,184.947 56.9303,182.447 51.5,179.5 Z"/></g>
<g><path style="opacity:1" fill="#c73d2e" d="M 81.5,168.5 C 82.1667,168.5 82.5,168.833 82.5,169.5C 81.3569,172.068 81.5236,174.735 83,177.5C 84.6823,181.852 87.1823,185.686 90.5,189C 90.2716,189.399 89.9382,189.565 89.5,189.5C 86.1443,188.389 83.1443,186.723 80.5,184.5C 81.2625,183.732 82.2625,183.232 83.5,183C 80.6004,178.385 79.9337,173.552 81.5,168.5 Z"/></g>
<g><path style="opacity:1" fill="#8661b7" d="M 123.5,184.5 C 122.514,186.408 120.848,187.408 118.5,187.5C 119.659,185.75 121.326,184.75 123.5,184.5 Z"/></g>
<g><path style="opacity:1" fill="#4f3b7b" d="M 117.5,187.5 C 115.969,188.925 116.302,189.591 118.5,189.5C 115.809,191.596 112.809,191.93 109.5,190.5C 109.957,189.702 110.624,189.369 111.5,189.5C 113.5,188.833 115.5,188.167 117.5,187.5 Z"/></g>
</svg>
